<svg viewBox="0 0 32 33" fill="none" xmlns="http://www.w3.org/2000/svg">
<g clip-path="url(#clip0_270_244)">
<path fill="currentColor"  d="M23.4021 13.5704C22.3214 13.5723 21.2792 13.9714 20.4734 14.6916C19.6677 15.4118 19.1547 16.4029 19.032 17.4766H16.3831C15.6657 17.4778 14.9569 17.3209 14.3071 17.0171C13.6573 16.7132 13.0824 16.27 12.6233 15.7188L10.5237 13.1919C11.4753 12.7695 12.2454 12.0221 12.6961 11.0836C13.1468 10.1451 13.2486 9.07675 12.9833 8.06998C12.7181 7.06322 12.103 6.18377 11.2484 5.58918C10.3938 4.99459 9.35536 4.72369 8.31917 4.82501C7.28299 4.92632 6.31672 5.39323 5.59345 6.14211C4.87017 6.89099 4.43714 7.87291 4.37192 8.91199C4.30669 9.95107 4.61353 10.9794 5.23748 11.8129C5.86143 12.6463 6.76173 13.2304 7.77711 13.4605V19.5396C6.7237 19.7797 5.79566 20.3994 5.17025 21.2804C4.54484 22.1614 4.26589 23.242 4.3867 24.3156C4.5075 25.3892 5.01959 26.3808 5.82514 27.1008C6.63069 27.8208 7.67325 28.2188 8.75367 28.2188C9.83409 28.2188 10.8767 27.8208 11.6822 27.1008C12.4878 26.3808 12.9998 25.3892 13.1206 24.3156C13.2415 23.242 12.9625 22.1614 12.3371 21.2804C11.7117 20.3994 10.7836 19.7797 9.73023 19.5396V15.2915L11.134 16.9639C11.7713 17.7385 12.573 18.3616 13.4808 18.788C14.3887 19.2145 15.38 19.4337 16.3831 19.4297H19.2639C19.5325 20.1895 20.0049 20.8608 20.6294 21.3702C21.2539 21.8796 22.0064 22.2074 22.8046 22.3179C23.6029 22.4284 24.4162 22.3173 25.1555 21.9966C25.8949 21.676 26.5318 21.1583 26.9967 20.5C27.4616 19.8418 27.7365 19.0683 27.7914 18.2643C27.8464 17.4603 27.6791 16.6567 27.3081 15.9414C26.937 15.226 26.3764 14.6265 25.6875 14.2083C24.9986 13.7901 24.208 13.5694 23.4021 13.5704ZM11.1951 23.8243C11.1951 24.3071 11.0519 24.7791 10.7836 25.1806C10.5154 25.5821 10.1341 25.895 9.68796 26.0798C9.24185 26.2646 8.75096 26.313 8.27738 26.2188C7.80379 26.1246 7.36877 25.892 7.02734 25.5506C6.6859 25.2092 6.45338 24.7741 6.35918 24.3006C6.26497 23.827 6.31332 23.3361 6.49811 22.89C6.68289 22.4439 6.99581 22.0626 7.3973 21.7943C7.79879 21.526 8.27081 21.3829 8.75367 21.3829C9.40018 21.3861 10.0193 21.6443 10.4765 22.1015C10.9336 22.5586 11.1919 23.1777 11.1951 23.8243ZM23.4021 20.4063C22.9192 20.4063 22.4472 20.2631 22.0457 19.9948C21.6442 19.7266 21.3313 19.3453 21.1465 18.8992C20.9618 18.4531 20.9134 17.9622 21.0076 17.4886C21.1018 17.015 21.3343 16.58 21.6758 16.2385C22.0172 15.8971 22.4522 15.6646 22.9258 15.5704C23.3994 15.4762 23.8903 15.5245 24.3364 15.7093C24.7825 15.8941 25.1638 16.207 25.4321 16.6085C25.7003 17.01 25.8435 17.482 25.8435 17.9649C25.8403 18.6114 25.5821 19.2305 25.1249 19.6877C24.6677 20.1448 24.0486 20.4031 23.4021 20.4063Z"/>
</g>
<defs>
<clipPath id="clip0_270_244">
<rect width="31.25" height="31.25" fill="white" transform="translate(0.452881 0.875)"/>
</clipPath>
</defs>
</svg>
