<svg width="21" height="20" viewBox="0 0 21 20" fill="none" xmlns="http://www.w3.org/2000/svg">
<circle cx="15.4997" cy="6.49945" r="3.49994" fill="#D9D9D9"/>
<path d="M6.77991 0.500155C7.4099 0.519314 8.01989 0.629312 8.61088 0.830309H8.66988C8.70988 0.849309 8.73988 0.870308 8.75988 0.889308C8.98088 0.960307 9.18987 1.04031 9.38987 1.1503L9.76986 1.3203C9.91986 1.4003 10.0999 1.5493 10.1999 1.6103C10.2999 1.66929 10.4099 1.73029 10.4998 1.79929C11.6108 0.950307 12.9598 0.490314 14.3498 0.500155C14.9808 0.500155 15.6108 0.589313 16.2098 0.79031C19.9007 1.99029 21.2307 6.04022 20.1197 9.58016C19.4897 11.3891 18.4597 13.0401 17.1107 14.3891C15.1798 16.2591 13.0608 17.919 10.7798 19.349L10.5298 19.5L10.2699 19.339C7.98089 17.919 5.84993 16.2591 3.90096 14.3791C2.56098 13.0301 1.53 11.3891 0.89001 9.58016C-0.239971 6.04022 1.09001 1.99029 4.82094 0.76931C5.11094 0.669312 5.40993 0.599313 5.70993 0.560313H5.82993C6.11092 0.519314 6.38992 0.500155 6.66991 0.500155H6.77991ZM15.6898 3.66026C15.2798 3.51926 14.8298 3.74026 14.6798 4.16025C14.5398 4.58025 14.7598 5.04024 15.1798 5.18924C15.8208 5.42923 16.2498 6.06022 16.2498 6.75921V6.79021C16.2308 7.01921 16.2998 7.2402 16.4398 7.4102C16.5797 7.5802 16.7897 7.67919 17.0097 7.70019C17.4197 7.68919 17.7697 7.3602 17.7997 6.93921V6.82021C17.8297 5.41923 16.9807 4.15025 15.6898 3.66026Z" fill="#F44336"/>
</svg>
