<svg  viewBox="0 0 25 19" fill="none" xmlns="http://www.w3.org/2000/svg">
<path fill="currentColor" d="M12.4216 0.125C14.8454 0.125 17.1434 0.965909 19.1442 2.52273C21.145 4.06818 22.8485 6.32955 24.0718 9.15909C24.1632 9.375 24.1632 9.625 24.0718 9.82955C21.6251 15.4886 17.2692 18.875 12.4216 18.875H12.4102C7.57407 18.875 3.21812 15.4886 0.771478 9.82955C0.680015 9.625 0.680015 9.375 0.771478 9.15909C3.21812 3.5 7.57407 0.125 12.4102 0.125H12.4216ZM12.4216 4.95455C9.89495 4.95455 7.84846 6.98864 7.84846 9.5C7.84846 12 9.89495 14.0341 12.4216 14.0341C14.9369 14.0341 16.9834 12 16.9834 9.5C16.9834 6.98864 14.9369 4.95455 12.4216 4.95455ZM12.423 6.65659C13.9893 6.65659 15.2698 7.92932 15.2698 9.4975C15.2698 11.0543 13.9893 12.327 12.423 12.327C10.8453 12.327 9.56477 11.0543 9.56477 9.4975C9.56477 9.30432 9.58764 9.1225 9.62194 8.94068H9.6791C10.9482 8.94068 11.9771 7.94068 12.0229 6.69068C12.1486 6.66795 12.2858 6.65659 12.423 6.65659Z"/>
</svg>
