<svg viewBox="0 0 23 23" fill="none" xmlns="http://www.w3.org/2000/svg">
<path fill="currentColor" d="M17.8858 14.0939C17.5962 14.3746 17.4631 14.7805 17.5291 15.1786L18.5233 20.6809C18.6072 21.1473 18.4103 21.6192 18.02 21.8887C17.6375 22.1683 17.1287 22.2019 16.7116 21.9782L11.7584 19.3948C11.5862 19.3031 11.3949 19.2539 11.1992 19.2483H10.8962C10.791 19.264 10.6881 19.2975 10.5942 19.349L5.63993 21.9446C5.39501 22.0677 5.11766 22.1113 4.84591 22.0677C4.18384 21.9424 3.7421 21.3117 3.85058 20.6462L4.84591 15.144C4.91189 14.7425 4.7788 14.3343 4.48915 14.0491L0.450805 10.1349C0.113064 9.80723 -0.00436208 9.31516 0.14997 8.87118C0.299828 8.42831 0.682302 8.10511 1.14418 8.03242L6.70236 7.22609C7.12509 7.18247 7.49639 6.92525 7.6865 6.54502L10.1357 1.52364C10.1938 1.41181 10.2688 1.30892 10.3594 1.22169L10.46 1.1434C10.5126 1.08525 10.573 1.03716 10.6401 0.998018L10.762 0.953284L10.9521 0.875H11.4229C11.8434 0.918616 12.2136 1.17024 12.407 1.54601L14.8887 6.54502C15.0676 6.91072 15.4154 7.16458 15.8169 7.22609L21.3751 8.03242C21.8448 8.09952 22.2373 8.42384 22.3928 8.87118C22.5393 9.31963 22.4129 9.81171 22.0684 10.1349L17.8858 14.0939Z"/>
</svg>
