<svg width="23" height="23" viewBox="0 0 23 23" fill="none" xmlns="http://www.w3.org/2000/svg">
<path fill="currentColor" fill-rule="evenodd" clip-rule="evenodd" d="M16.4841 0C20.3814 0 23 2.7347 23 6.8034V16.1966C23 20.2653 20.3815 23 16.483 23H6.51475C2.6174 23 0 20.2653 0 16.1966V6.8034C0 2.7347 2.6174 0 6.51475 0H16.4841ZM16.4841 1.725H6.51475C3.60525 1.725 1.725 3.71795 1.725 6.8034V16.1966C1.725 19.282 3.60525 21.275 6.51475 21.275H16.483C19.3936 21.275 21.275 19.282 21.275 16.1966V6.8034C21.275 3.71795 19.3936 1.725 16.4841 1.725ZM16.2029 8.16155C16.5399 8.4985 16.5399 9.0436 16.2029 9.38055L10.745 14.8384C10.5771 15.0075 10.3563 15.0914 10.1355 15.0914C9.91588 15.0914 9.69392 15.0075 9.52602 14.8384L6.79593 12.1095C6.45897 11.7725 6.45897 11.2275 6.79593 10.8905C7.13287 10.5535 7.67797 10.5535 8.01493 10.8905L10.1355 13.0088L14.9839 8.16155C15.3209 7.8246 15.866 7.8246 16.2029 8.16155Z"/>
</svg>
