<svg viewBox="0 0 48 48"  xmlns="http://www.w3.org/2000/svg">
<path fill="currentColor" fill-rule="evenodd" clip-rule="evenodd" d="M23.9915 1C18.294 1.00296 12.7832 3.02092 8.44471 6.69305C4.10618 10.3652 1.22277 15.452 0.310056 21.044C-0.602662 26.636 0.51482 32.3684 3.46271 37.2164C6.4106 42.0643 10.9966 45.7115 16.4008 47.5059C17.5931 47.7272 18.0422 46.9883 18.0422 46.36C18.0422 45.7317 18.0183 43.91 18.0104 41.9184C11.3338 43.3608 9.92294 39.101 9.92294 39.101C8.83402 36.3349 7.26024 35.6078 7.26024 35.6078C5.0824 34.1299 7.42319 34.1576 7.42319 34.1576C9.83552 34.3275 11.1033 36.6194 11.1033 36.6194C13.2414 40.2667 16.7188 39.2116 18.0859 38.5952C18.3005 37.0501 18.9244 35.999 19.612 35.4023C14.2786 34.8017 8.67504 32.7548 8.67504 23.6108C8.64199 21.2394 9.52701 18.9461 11.147 17.2054C10.9006 16.6047 10.0779 14.1785 11.3815 10.8829C11.3815 10.8829 13.3964 10.2427 17.9826 13.3289C21.9163 12.2592 26.0667 12.2592 30.0004 13.3289C34.5827 10.2427 36.5936 10.8829 36.5936 10.8829C37.9011 14.1706 37.0784 16.5968 36.832 17.2054C38.4571 18.9464 39.344 21.2437 39.3079 23.6187C39.3079 32.7824 33.6924 34.8017 28.3512 35.3905C29.2096 36.1334 29.9766 37.5836 29.9766 39.8122C29.9766 43.0051 29.9488 45.5736 29.9488 46.36C29.9488 46.9962 30.3819 47.7391 31.598 47.5059C37.0029 45.7113 41.5894 42.0634 44.5372 37.2147C47.485 32.3659 48.6019 26.6326 47.6882 21.0401C46.7744 15.4476 43.8896 10.3607 39.5496 6.68921C35.2097 3.01771 29.6977 1.00108 23.9994 1H23.9915Z"/>
</svg>
