<svg viewBox="0 0 48 48" fill="none" xmlns="http://www.w3.org/2000/svg">
<g clip-path="url(#clip0_17_74)">
<path fill-rule="evenodd" clip-rule="evenodd" d="M33.6866 13.0957C31.2086 10.7323 27.9016 9.44476 24.48 9.49767C18.2187 9.49767 12.9011 13.7218 11.0051 19.4098C9.99973 22.3905 9.99973 25.6182 11.0051 28.5989H11.0139C12.9187 34.2782 18.2275 38.5023 24.4888 38.5023C27.7208 38.5023 30.4956 37.6756 32.6461 36.2154V36.2095C35.177 34.534 36.9055 31.8972 37.4434 28.9165H24.48V19.6745H47.1175C47.3997 21.2795 47.532 22.9198 47.532 24.5512C47.532 31.8509 44.9232 38.0225 40.3841 42.2025L40.3888 42.2061C36.4116 45.8747 30.9529 48 24.48 48C15.4056 48 7.10718 42.8852 3.03296 34.7808C-0.371021 27.9993 -0.371012 20.0096 3.03298 13.228C7.10721 5.11485 15.4055 -3.06172e-05 24.48 -3.06172e-05C30.4414 -0.0705799 36.2 2.16936 40.5387 6.24359L33.6866 13.0957Z" fill="currentColor"/>
</g>
<defs>
<clipPath id="clip0_17_74">
<rect width="48" height="48" fill="currentColor"/>
</clipPath>
</defs>
</svg>
