<svg viewBox="0 0 48 48" fill="none" xmlns="http://www.w3.org/2000/svg">
<path d="M47.8265 34.9152C47.4955 34.0082 46.8582 33.5179 46.135 33.1257C46.0001 33.0521 45.8776 32.9786 45.7673 32.9296C45.5466 32.8192 45.326 32.7089 45.1054 32.5986C42.8501 31.3974 41.085 29.902 39.8716 28.1125C39.5284 27.6099 39.2219 27.0706 38.9768 26.519C38.8665 26.2249 38.8787 26.0533 38.9523 25.8939C39.0258 25.7714 39.1239 25.6733 39.2464 25.5875C39.6387 25.3301 40.0309 25.0727 40.3006 24.9011C40.7786 24.5824 41.1708 24.3373 41.416 24.1657C42.3353 23.516 42.9849 22.8296 43.3894 22.0574C43.9655 20.9788 44.039 19.7163 43.5977 18.5764C42.9849 16.9585 41.465 15.9656 39.6142 15.9656C39.2219 15.9656 38.842 16.0024 38.4497 16.0882C38.3517 16.1127 38.2414 16.1372 38.1433 16.1617C38.1556 15.0586 38.131 13.8942 38.033 12.742C37.6898 8.70937 36.2679 6.60114 34.7971 4.9219C33.8533 3.86778 32.7501 2.97301 31.5122 2.27435C29.2814 0.999606 26.7441 0.349976 23.9863 0.349976C21.2284 0.349976 18.7034 0.999606 16.4726 2.27435C15.2346 2.97301 14.1315 3.86778 13.1877 4.9219C11.7168 6.60114 10.3073 8.72163 9.95179 12.742C9.85373 13.8942 9.82922 15.0586 9.84148 16.1617C9.74342 16.1372 9.64536 16.1127 9.53505 16.0882C9.15507 16.0024 8.76285 15.9656 8.38287 15.9656C6.53204 15.9656 5.01215 16.9707 4.39929 18.5764C3.95803 19.7163 4.03157 20.9788 4.60766 22.0574C5.01215 22.8296 5.66178 23.516 6.58107 24.1657C6.82621 24.3373 7.20618 24.5824 7.69647 24.9011C7.95387 25.0727 8.33384 25.3178 8.71382 25.563C8.84864 25.6488 8.95896 25.7591 9.04476 25.8939C9.1183 26.0533 9.13056 26.2249 9.00799 26.5436C8.76284 27.0829 8.46867 27.6099 8.12547 28.1002C6.93653 29.8407 5.22052 31.3239 3.03874 32.5128C1.88657 33.1257 0.685365 33.5302 0.170564 34.9152C-0.209408 35.9571 0.035735 37.1338 1.00405 38.1389C1.35951 38.5066 1.77625 38.8253 2.22977 39.0704C3.17357 39.5852 4.17866 39.9897 5.23278 40.2716C5.45341 40.3329 5.64952 40.4187 5.83338 40.5413C6.18884 40.8477 6.13981 41.3135 6.60558 41.9999C6.83847 42.3553 7.1449 42.6618 7.4881 42.9069C8.48093 43.5933 9.59633 43.6301 10.773 43.6791C11.8394 43.7159 13.0406 43.7649 14.4257 44.2184C15.0017 44.4023 15.5901 44.77 16.2765 45.199C17.9312 46.2163 20.1865 47.6014 23.974 47.6014C27.7615 47.6014 30.029 46.2041 31.696 45.1867C32.3824 44.77 32.9708 44.4023 33.5223 44.2184C34.8951 43.7649 36.1086 43.7159 37.175 43.6791C38.3517 43.6301 39.4671 43.5933 40.4599 42.9069C40.8767 42.6127 41.2198 42.245 41.465 41.8037C41.8082 41.2277 41.7959 40.8232 42.1146 40.5413C42.2862 40.4187 42.4823 40.3329 42.6785 40.2839C43.7326 40.0019 44.7622 39.5975 45.7182 39.0704C46.1963 38.813 46.6375 38.4698 47.0052 38.0653L47.0175 38.0531C47.9736 37.0725 48.2064 35.9203 47.8265 34.9152ZM44.468 36.717C42.4211 37.8447 41.0483 37.7221 39.9941 38.4085C39.0871 38.9846 39.6264 40.2348 38.9768 40.6883C38.1678 41.2399 35.7899 40.6516 32.7256 41.6689C30.1884 42.5024 28.5827 44.9171 24.023 44.9171C19.4634 44.9171 17.8944 42.5147 15.3204 41.6689C12.2561 40.6516 9.87825 41.2522 9.06927 40.6883C8.41964 40.2348 8.9467 38.9846 8.05193 38.4085C6.98556 37.7221 5.62501 37.8447 3.57806 36.717C2.26654 35.9938 3.01423 35.5526 3.44323 35.3442C10.8711 31.7529 12.06 26.2004 12.1091 25.7836C12.1703 25.2811 12.2439 24.8888 11.6923 24.3863C11.1653 23.896 8.81187 22.4374 8.14999 21.9839C7.07135 21.2239 6.59333 20.4763 6.94878 19.5447C7.19393 18.9073 7.79453 18.6622 8.41964 18.6622C8.61576 18.6622 8.81187 18.6867 9.00799 18.7235C10.1969 18.9809 11.3491 19.5692 12.011 19.7408C12.0968 19.7653 12.1703 19.7776 12.2561 19.7776C12.6116 19.7776 12.7342 19.5937 12.7097 19.1893C12.6361 17.89 12.4523 15.365 12.6606 12.9994C12.9425 9.75123 13.9844 8.13328 15.2346 6.71145C15.8352 6.02505 18.6421 3.05881 24.023 3.05881C29.4039 3.05881 32.2108 6.01279 32.8114 6.69919C34.0617 8.12103 35.1035 9.73897 35.3854 12.9871C35.5938 15.3528 35.4099 17.8777 35.3241 19.177C35.2996 19.606 35.4222 19.7653 35.7777 19.7653C35.8635 19.7653 35.937 19.7531 36.0228 19.7286C36.6847 19.5692 37.8369 18.9686 39.0258 18.7112C39.2219 18.6622 39.418 18.6499 39.6142 18.6499C40.2393 18.6499 40.8399 18.8951 41.085 19.5325C41.4405 20.464 40.9625 21.2117 39.8838 21.9716C39.2342 22.4251 36.8808 23.8838 36.3415 24.374C35.7899 24.8766 35.8635 25.2688 35.9248 25.7714C35.9738 26.1881 37.1627 31.7406 44.5906 35.332C45.0318 35.5403 45.7673 35.9938 44.468 36.717Z" fill="currentColor"/>
</svg>
