<svg viewBox="0 0 48 40" fill="none" xmlns="http://www.w3.org/2000/svg">
<path d="M15.1003 39.5C33.2091 39.5 43.1166 24.4935 43.1166 11.4838C43.1166 11.0619 43.1072 10.6307 43.0884 10.2088C45.0158 8.81498 46.679 7.08857 48 5.11066C46.205 5.90926 44.2993 6.43083 42.3478 6.65753C44.4026 5.42588 45.9411 3.491 46.6781 1.21159C44.7451 2.35718 42.6312 3.16528 40.4269 3.60128C38.9417 2.02318 36.978 0.978294 34.8394 0.628163C32.7008 0.278032 30.5064 0.642162 28.5955 1.66425C26.6846 2.68635 25.1636 4.30947 24.2677 6.28268C23.3718 8.2559 23.1509 10.4693 23.6391 12.5807C19.725 12.3842 15.8959 11.3675 12.4 9.59626C8.90405 7.82505 5.81939 5.33893 3.34594 2.29909C2.0888 4.46655 1.70411 7.03135 2.27006 9.47224C2.83601 11.9131 4.31013 14.047 6.39281 15.44C4.82926 15.3904 3.29995 14.9694 1.93125 14.2119V14.3338C1.92985 16.6084 2.7162 18.8132 4.15662 20.5736C5.59704 22.334 7.60265 23.5412 9.8325 23.99C8.38411 24.3863 6.86396 24.4441 5.38969 24.1588C6.01891 26.1149 7.24315 27.8258 8.89154 29.0527C10.5399 30.2796 12.5302 30.9613 14.5847 31.0025C11.0968 33.7423 6.78835 35.2283 2.35313 35.2213C1.56657 35.2201 0.780798 35.1719 0 35.0769C4.50571 37.9676 9.74706 39.5028 15.1003 39.5Z" fill="currentColor"/>
</svg>
